<svg width="88" height="107" viewBox="0 0 88 107" fill="none" xmlns="http://www.w3.org/2000/svg">
<g filter="url(#filter0_dd_984_12228)">
<rect x="24" y="25" width="44" height="44" rx="22" fill="white"/>
<mask id="mask0_984_12228" style="mask-type:alpha" maskUnits="userSpaceOnUse" x="34" y="35" width="24" height="24">
<rect x="34" y="35" width="24" height="24" fill="#D9D9D9"/>
</mask>
<g mask="url(#mask0_984_12228)">
<path d="M38 56V44L46 38L54 44V56H51V46H41V56H38ZM43 54H49V52H43V54ZM43 50H49V48H43V50Z" fill="#16402F"/>
</g>
<path d="M46 81.6667C47.4728 81.6667 48.6667 80.4728 48.6667 79C48.6667 77.5272 47.4728 76.3333 46 76.3333C44.5272 76.3333 43.3333 77.5272 43.3333 79C43.3333 80.4728 44.5272 81.6667 46 81.6667ZM46.5 79V69H45.5V79H46.5Z" fill="#16402F"/>
</g>
<defs>
<filter id="filter0_dd_984_12228" x="0" y="0" width="94" height="106.667" filterUnits="userSpaceOnUse" color-interpolation-filters="sRGB">
<feFlood flood-opacity="0" result="BackgroundImageFix"/>
<feColorMatrix in="SourceAlpha" type="matrix" values="0 0 0 0 0 0 0 0 0 0 0 0 0 0 0 0 0 0 127 0" result="hardAlpha"/>
<feMorphology radius="5" operator="dilate" in="SourceAlpha" result="effect1_dropShadow_984_12228"/>
<feOffset dy="1"/>
<feGaussianBlur stdDeviation="5"/>
<feComposite in2="hardAlpha" operator="out"/>
<feColorMatrix type="matrix" values="0 0 0 0 0 0 0 0 0 0 0 0 0 0 0 0 0 0 0.15 0"/>
<feBlend mode="normal" in2="BackgroundImageFix" result="effect1_dropShadow_984_12228"/>
<feColorMatrix in="SourceAlpha" type="matrix" values="0 0 0 0 0 0 0 0 0 0 0 0 0 0 0 0 0 0 127 0" result="hardAlpha"/>
<feMorphology radius="5" operator="dilate" in="SourceAlpha" result="effect2_dropShadow_984_12228"/>
<feOffset dx="1"/>
<feGaussianBlur stdDeviation="10"/>
<feComposite in2="hardAlpha" operator="out"/>
<feColorMatrix type="matrix" values="0 0 0 0 0 0 0 0 0 0 0 0 0 0 0 0 0 0 0.15 0"/>
<feBlend mode="normal" in2="effect1_dropShadow_984_12228" result="effect2_dropShadow_984_12228"/>
<feBlend mode="normal" in="SourceGraphic" in2="effect2_dropShadow_984_12228" result="shape"/>
</filter>
</defs>
</svg>
