<svg width="130" height="30" viewBox="0 0 130 30" fill="none" xmlns="http://www.w3.org/2000/svg">
<g clip-path="url(#clip0_1569_27885)">
<path d="M23.8249 14.2878C23.8249 19.0274 22.3573 22.9044 19.644 25.5759C19.0793 26.1406 18.4386 26.6502 17.7264 27.1032C14.0476 25.2198 11.5221 21.3265 11.5221 16.8312C11.5221 16.1875 11.5742 15.5558 11.6755 14.9434L14.9908 16.6762L13.8733 9.80588L13.471 7.3325L13.4308 7.08815L4.15409 11.6863L6.87183 13.1047C6.10299 14.6573 5.67239 16.4125 5.67239 18.2735C5.67239 23.2217 8.73431 27.4399 13.0255 29.055C11.1675 29.5169 9.08148 29.7553 6.80478 29.7553C4.13323 29.7553 1.89378 29.6257 0 29.4112V0.848074C2.28415 0.503887 4.99593 0.244629 7.96846 0.244629C13.3533 0.244629 17.1885 1.49473 19.7289 3.86232C22.3126 6.2314 23.8249 9.59282 23.8249 14.2878Z" fill="#16402F"/>
<path d="M25.3149 6.41022V10.1888H29.7328V23.5898L33.6604 21.6349V10.1888H38.0782V6.41022H25.3149Z" fill="#16402F"/>
<path d="M49.3929 17.2827C51.2837 16.3246 52.5607 14.41 52.5607 12.3001C52.5607 9.03558 49.9338 6.41022 46.6678 6.41022H39.7944V23.4855L40.1833 23.2903L43.7235 21.5276V17.9457H45.589L48.8282 23.5913H53.0494L49.3914 17.2827H49.3929ZM46.6678 14.5083H43.7235V10.0905H46.6678C47.7495 10.0905 48.6316 11.0486 48.6316 12.3001C48.6316 13.5517 47.7495 14.5083 46.6678 14.5083Z" fill="#16402F"/>
<path d="M64.2661 6.41022H59.2597L53.4175 23.5928H57.7131L58.5728 20.8914H64.9545L65.8142 23.5928H70.1098L64.2676 6.41022H64.2661ZM59.7514 17.2111L61.7629 10.9025L63.7774 17.2111H59.7514Z" fill="#16402F"/>
<path d="M79.1659 20.1062C76.1233 20.1062 74.1595 18.0679 74.1595 15C74.1595 11.9321 76.1233 9.89527 79.1659 9.89527C80.9092 9.89527 82.3813 10.679 83.1427 12.0051L86.5309 10.0413C85.0335 7.61112 82.2844 6.06451 79.1659 6.06451C73.9882 6.06451 70.2334 9.94295 70.2334 15C70.2334 20.057 73.9897 23.9354 79.1659 23.9354C82.3083 23.9354 85.0588 22.3873 86.5309 19.9587L83.1427 17.9949C82.4066 19.3209 80.9092 20.1062 79.1659 20.1062Z" fill="#16402F"/>
<path d="M96.2248 14.7794L102.019 6.40869H97.5509L92.2987 13.8691V6.40869H92.2301L88.3726 8.33078V23.5912H92.3002V15.6362L97.7997 23.5912H102.267L96.2278 14.7794H96.2248Z" fill="#16402F"/>
<path d="M107.663 19.8112V16.7671H113.801V13.0362H107.663V10.1888H114.413V6.41022H103.736V23.5928H114.537V19.8127H107.663V19.8112Z" fill="#16402F"/>
<path d="M126.342 17.2827C128.233 16.3246 129.508 14.41 129.508 12.3001C129.508 9.03558 126.882 6.41022 123.618 6.41022H116.745V23.5928L117.35 23.2918L120.673 21.6349V17.9457H122.538L125.779 23.5913H130L126.342 17.2827ZM123.617 14.5083H120.671V10.0905H123.617C124.696 10.0905 125.581 11.0486 125.581 12.3001C125.581 13.5517 124.696 14.5083 123.617 14.5083Z" fill="#16402F"/>
</g>
<defs>
<clipPath id="clip0_1569_27885">
<rect width="130" height="29.5107" fill="white" transform="translate(0 0.244629)"/>
</clipPath>
</defs>
</svg>
