<svg width="190" height="44" viewBox="0 0 190 44" fill="none" xmlns="http://www.w3.org/2000/svg">
<g clip-path="url(#clip0_349_2389)">
<path d="M34.821 20.5246C34.821 27.4518 32.676 33.1181 28.7105 37.0227C27.8851 37.848 26.9487 38.5928 25.9078 39.2548C20.5311 36.5022 16.84 30.8119 16.84 24.2419C16.84 23.3011 16.9162 22.3778 17.0643 21.4828L21.9096 24.0154L20.2763 13.9741L19.6884 10.3592L19.6296 10.0021L6.07136 16.7224L10.0434 18.7955C8.91976 21.0647 8.29041 23.63 8.29041 26.3499C8.29041 33.5819 12.7655 39.7469 19.0372 42.1075C16.3217 42.7826 13.2729 43.131 9.94544 43.131C6.04087 43.131 2.76783 42.9416 0 42.628V0.881959C3.33838 0.378916 7.30175 0 11.6462 0C19.5163 0 25.1217 1.82707 28.8346 5.2874C32.6107 8.7499 34.821 13.6627 34.821 20.5246Z" fill="#38A176"/>
<path d="M36.9987 9.01123V14.5338H43.4555V34.1198L49.1959 31.2627V14.5338H55.6527V9.01123H36.9987Z" fill="#38A176"/>
<path d="M72.1899 24.9017C74.9534 23.5015 76.8197 20.7032 76.8197 17.6196C76.8197 12.8483 72.9804 9.01123 68.207 9.01123H58.1613V33.9674L58.7297 33.6821L63.9039 31.1059V25.8708H66.6303L71.3646 34.122H77.534L72.1878 24.9017H72.1899ZM68.207 20.8469H63.9039V14.3901H68.207C69.788 14.3901 71.0771 15.7903 71.0771 17.6196C71.0771 19.4488 69.788 20.8469 68.207 20.8469Z" fill="#38A176"/>
<path d="M93.9275 9.01123H86.6105L78.0718 34.1242H84.3501L85.6066 30.1761H94.9336L96.1901 34.1242H102.468L93.9297 9.01123H93.9275ZM87.3291 24.7972L90.269 15.5769L93.2132 24.7972H87.3291Z" fill="#38A176"/>
<path d="M115.704 29.0284C111.257 29.0284 108.387 26.0494 108.387 21.5655C108.387 17.0817 111.257 14.1048 115.704 14.1048C118.252 14.1048 120.404 15.2503 121.516 17.1884L126.469 14.3182C124.28 10.7664 120.262 8.50601 115.704 8.50601C108.137 8.50601 102.649 14.1745 102.649 21.5655C102.649 28.9566 108.139 34.6251 115.704 34.6251C120.297 34.6251 124.317 32.3624 126.469 28.8128L121.516 25.9427C120.441 27.8808 118.252 29.0284 115.704 29.0284Z" fill="#38A176"/>
<path d="M140.636 21.2432L149.105 9.00903H142.575L134.898 19.9127V9.00903H134.798L129.16 11.8182V34.122H134.9V22.4954L142.938 34.122H149.467L140.641 21.2432H140.636Z" fill="#38A176"/>
<path d="M157.354 28.5972V24.1483H166.324V18.6954H157.354V14.5338H167.219V9.01123H151.614V34.1242H167.4V28.5994H157.354V28.5972Z" fill="#38A176"/>
<path d="M184.654 24.9017C187.417 23.5015 189.281 20.7032 189.281 17.6196C189.281 12.8483 185.442 9.01123 180.673 9.01123H170.627V34.1242L171.512 33.6843L176.368 31.2627V25.8708H179.094L183.831 34.122H190L184.654 24.9017ZM180.671 20.8469H176.366V14.3901H180.671C182.247 14.3901 183.541 15.7903 183.541 17.6196C183.541 19.4488 182.247 20.8469 180.671 20.8469Z" fill="#38A176"/>
</g>
<defs>
<clipPath id="clip0_349_2389">
<rect width="190" height="43.131" fill="white"/>
</clipPath>
</defs>
</svg>
