<svg width="24" height="25" viewBox="0 0 24 25" fill="none" xmlns="http://www.w3.org/2000/svg">
<g id="octicon:goal-16">
<path id="Vector" d="M20.4555 4.0445L22.9695 4.547C23.1045 4.574 23.2155 4.673 23.2545 4.8065C23.2742 4.87135 23.276 4.94032 23.2596 5.00609C23.2432 5.07185 23.2093 5.13195 23.1615 5.18L21.102 7.241C20.8552 7.48639 20.5215 7.6244 20.1735 7.625H18.465L14.175 11.9165C14.2568 12.2255 14.2719 12.5485 14.2192 12.8638C14.1664 13.1791 14.0471 13.4795 13.8691 13.7451C13.6911 14.0107 13.4586 14.2353 13.1871 14.4039C12.9155 14.5726 12.6111 14.6814 12.2941 14.7232C11.9772 14.765 11.655 14.7388 11.349 14.6463C11.043 14.5538 10.7602 14.3971 10.5194 14.1868C10.2787 13.9764 10.0856 13.7172 9.95291 13.4263C9.82023 13.1355 9.75106 12.8197 9.75 12.5C9.74993 12.1547 9.82931 11.8141 9.98201 11.5044C10.1347 11.1948 10.3566 10.9244 10.6306 10.7143C10.9045 10.5041 11.2232 10.3598 11.5618 10.2926C11.9005 10.2254 12.25 10.237 12.5835 10.3265L16.875 6.03349V4.328C16.875 3.98 17.013 3.6455 17.259 3.3995L19.32 1.3385C19.368 1.29069 19.4281 1.2568 19.4939 1.24042C19.5597 1.22404 19.6286 1.2258 19.6935 1.2455C19.827 1.2845 19.926 1.3955 19.953 1.5305L20.4555 4.0445Z" fill="#192F2F"/>
<path id="Vector_2" d="M3.00004 12.5C3.00158 13.7869 3.2791 15.0586 3.81389 16.2292C4.34868 17.3997 5.12829 18.442 6.10013 19.2856C7.07197 20.1293 8.21344 20.7547 9.44754 21.1197C10.6816 21.4847 11.9797 21.5807 13.2541 21.4014C14.5284 21.2221 15.7496 20.7716 16.835 20.0802C17.9205 19.3888 18.845 18.4727 19.5463 17.3936C20.2476 16.3146 20.7094 15.0976 20.9004 13.8249C21.0914 12.5523 21.0072 11.2534 20.6535 10.016C20.6039 9.87144 20.5842 9.71828 20.5956 9.56585C20.607 9.41343 20.6494 9.26492 20.72 9.12937C20.7907 8.99383 20.8882 8.87408 21.0066 8.77742C21.125 8.68076 21.2618 8.6092 21.4088 8.56712C21.5557 8.52503 21.7097 8.51329 21.8613 8.53261C22.013 8.55193 22.1591 8.60191 22.2908 8.6795C22.4225 8.75709 22.537 8.86067 22.6274 8.98393C22.7178 9.1072 22.7821 9.24757 22.8165 9.39651C23.5013 11.7928 23.3712 14.3486 22.4467 16.663C21.5222 18.9774 19.8555 20.9194 17.7082 22.1843C15.5608 23.4492 13.0543 23.9655 10.5819 23.6522C8.10942 23.3389 5.81095 22.2136 4.04704 20.453C2.28505 18.6895 1.1586 16.3908 0.844545 13.9178C0.530488 11.4448 1.04661 8.93753 2.31187 6.78961C3.57714 4.6417 5.5199 2.9748 7.83513 2.05062C10.1504 1.12643 12.707 0.997305 15.1035 1.68351C15.3889 1.76692 15.6296 1.95991 15.7731 2.22028C15.9167 2.48066 15.9513 2.78726 15.8694 3.07307C15.7875 3.35888 15.5959 3.60067 15.3363 3.7456C15.0767 3.89053 14.7703 3.9268 14.484 3.8465C13.1439 3.46168 11.7327 3.39349 10.3617 3.64731C8.99066 3.90113 7.69738 4.47002 6.58383 5.30911C5.47028 6.1482 4.56691 7.23454 3.94498 8.48245C3.32305 9.73036 2.99956 11.1057 3.00004 12.5Z" fill="#192F2F"/>
<path id="Vector_3" d="M7.49974 12.5C7.49983 13.3199 7.72376 14.1242 8.14739 14.8262C8.57101 15.5281 9.17825 16.1011 9.9036 16.4833C10.6289 16.8655 11.4449 17.0424 12.2634 16.995C13.0819 16.9475 13.8719 16.6775 14.5482 16.214C15.2244 15.7494 15.7607 15.1087 16.0991 14.3613C16.4375 13.6139 16.5652 12.7882 16.4682 11.9735C16.442 11.7758 16.469 11.5747 16.5463 11.3909C16.6237 11.2071 16.7486 11.0472 16.9083 10.9277C17.0679 10.8082 17.2566 10.7334 17.4547 10.7111C17.6529 10.6887 17.8535 10.7196 18.0357 10.8005C18.218 10.8804 18.3758 11.0071 18.493 11.1679C18.6103 11.3286 18.6828 11.5176 18.7032 11.7155C18.8662 13.1077 18.5918 14.516 17.918 15.7451C17.2442 16.9742 16.2046 17.9631 14.9433 18.5744C13.682 19.1858 12.2616 19.3894 10.8794 19.1569C9.49714 18.9244 8.22156 18.2674 7.22969 17.277C6.23781 16.2866 5.57884 15.012 5.34425 13.6302C5.10965 12.2483 5.31106 10.8276 5.92052 9.56541C6.52998 8.30319 7.51726 7.262 8.74533 6.58636C9.9734 5.91072 11.3813 5.63414 12.7737 5.79501C12.9228 5.80884 13.0677 5.8523 13.1997 5.92283C13.3318 5.99336 13.4485 6.08955 13.5429 6.20576C13.6373 6.32197 13.7076 6.45586 13.7496 6.59958C13.7916 6.7433 13.8045 6.89396 13.7876 7.04272C13.7706 7.19149 13.7241 7.33538 13.6508 7.46594C13.5775 7.5965 13.4788 7.71112 13.3607 7.80307C13.2425 7.89502 13.1072 7.96246 12.9626 8.00143C12.818 8.0404 12.6671 8.05011 12.5187 8.03001C11.8882 7.9568 11.2494 8.01781 10.6441 8.20903C10.0388 8.40025 9.48087 8.71736 9.00686 9.13952C8.53285 9.56168 8.15351 10.0793 7.89377 10.6585C7.63402 11.2377 7.49974 11.8653 7.49974 12.5Z" fill="#192F2F"/>
</g>
</svg>
